# AST/ASF file generated using VICON BodyLanguage
# -----------------------------------------------
:version 1.10
:name VICON
:units
  mass 1.0
  length 0.45
  angle deg
:documentation
   .ast/.asf automatically generated from VICON data using
   VICON BodyBuilder and BodyLanguage model FoxedUp or BRILLIANT.MOD
:root
   order TX TY TZ RX RY RZ
   axis XYZ
   position 0 0 0  
   orientation 0 0 0 
:bonedata
  begin
     id 1 
     name lhipjoint
     direction 0.621036 -0.695554 0.361275 
     length 2.46325 
     axis 0 0 0  XYZ
  end
  begin
     id 2 
     name lfemur
     direction 0.34202 -0.939693 0  
     length 6.54784  
     axis 0 0 20  XYZ
    dof rx ry rz
    limits (-160.0 20.0)
           (-70.0 70.0)
           (-60.0 70.0)
  end
  begin
     id 3 
     name ltibia
     direction 0.34202 -0.939693 0   
     length 7.84737   
     axis 0 0 20   XYZ
    dof rx
    limits (-10.0 170.0)
  end
  begin
     id 4 
     name lfoot
     direction 0.0790693 -0.217241 0.97291   
     length 2.59747   
     axis -90 7.62852e-016 20   XYZ
    dof rx rz
    limits (-45.0 90.0)
           (-70.0 20.0)
  end
  begin
     id 5 
     name ltoes
     direction 1.53572e-011 -4.21898e-011 1   
     length 1.29919   
     axis -90 7.62852e-016 20   XYZ
    dof rx
    limits (-90.0 20.0)
  end
  begin
     id 6 
     name rhipjoint
     direction -0.602353 -0.708375 0.367935   
     length 2.41867  
     axis 0 0 0  XYZ 
  end
  begin
     id 7 
     name rfemur
     direction -0.34202 -0.939693 0   
     length 6.92065   
     axis 0 0 -20   XYZ
    dof rx ry rz
    limits (-160.0 20.0)
           (-70.0 70.0)
           (-70.0 60.0)
  end
  begin
     id 8 
     name rtibia
     direction -0.34202 -0.939693 0   
     length 7.88883   
     axis 0 0 -20   XYZ
    dof rx
    limits (-10.0 170.0)
 end
 begin
     id 9 
     name rfoot
     direction -0.0768692 -0.211196 0.974416   
     length 2.43714  
     axis -90 -7.62852e-016 -20   XYZ
    dof rx rz
    limits (-45.0 90.0)
           (-20.0 70.0)
  end
  begin
     id 10 
     name rtoes
     direction -1.53575e-011 -4.21933e-011 1   
     length 1.22113   
     axis -90 -7.62852e-016 -20   XYZ
    dof rx
    limits (-90.0 20.0)
  end
  begin
     id 11 
     name lowerback
     direction 0.0197937 0.98943 -0.143655   
     length 2.16931   
     axis 0 0 0   XYZ
    dof rx ry rz
    limits (-20.0 45.0)
           (-30.0 30.0)
           (-30.0 30.0)
  end
  begin
     id 12 
     name upperback
     direction -0.00183968 0.999975 0.00684288   
     length 2.17221   
     axis 0 0 0   XYZ
    dof rx ry rz
    limits (-20.0 45.0)
           (-30.0 30.0)
           (-30.0 30.0)
  end
  begin
     id 13 
     name thorax
     direction -0.00950244 0.997208 0.0740685   
     length 2.22549   
     axis 0 0 0   XYZ
    dof rx ry rz
    limits (-20.0 45.0)
           (-30.0 30.0)
           (-30.0 30.0)
  end
  begin
     id 14 
     name lowerneck
     direction 0.0218238 0.996215 0.0841425   
     length 1.77269   
     axis 0 0 0   XYZ
    dof rx ry rz
    limits (-20.0 45.0)
           (-30.0 30.0)
           (-30.0 30.0)
  end
  begin
     id 15 
     name upperneck
     direction -0.00430652 0.994214 -0.107332   
     length 1.76534   
     axis 0 0 0   XYZ
    dof rx ry rz
    limits (-20.0 45.0)
           (-30.0 30.0)
           (-30.0 30.0)
  end
  begin
     id 16
     name head
     direction -0.00328946 0.998959 -0.0454998  
     length 1.82634  
     axis 0 0 0   XYZ
    dof rx ry rz
    limits (-20.0 45.0)
           (-30.0 30.0)
           (-30.0 30.0)
  end
  begin
     id 17 
     name lclavicle
     direction 0.970962 0.239191 0.00450212  
     length 3.84872  
     axis 0 0 0   XYZ
    dof ry rz
    limits (-20.0 10.0)
           (0.0 20.0)
  end
  begin
     id 18 
     name lhumerus
     direction 1 -4.48966e-011 5.74696e-028   
     length 5.22771   
     axis 180 -30 -90   XYZ
    dof rx ry rz
    limits (-60.0 90.0)
           (-90.0 90.0)
           (-90.0 90.0)
  end
  begin
     id 19
     name lradius
     direction 1 -4.4896e-011 4.25109e-027   
     length 3.45251   
     axis 180 -30 -90   XYZ
    dof rx
    limits (-10.0 170.0)
  end
  begin
     id 20
     name lwrist
     direction 1 -4.48971e-011 1.15382e-027   
     length 1.72626   
     axis -5.52449e-016 90 90   XYZ
    dof ry
    limits (-180.0 0.0)
 end
  begin
     id 21 
     name lhand
     direction 1 -4.49034e-011 2.30765e-027   
     length 0.552119   
     axis -1.47248e-015 90 90   XYZ
    dof rx rz
    limits (-90.0 90.0)
           (-45.0 45.0)
  end
  begin
     id 22 
     name lfingers
     direction 1 -4.48951e-011 4.61529e-027   
     length 0.445133   
     axis -2.94495e-015 90 90   XYZ
    dof rx
    limits (0.0 90.0)
  end
  begin
     id 23
     name lthumb
     direction 0.707107 -6.34991e-011 0.707107   
     length 0.639124   
     axis -90 45 2.85299e-015   XYZ
    dof rx rz
    limits (-45.0 45.0)
           (-45.0 45.0)
  end
  begin
     id 24 
     name rclavicle
     direction -0.97424 0.222511 -0.0366699   
     length 3.73439  
     axis 0 0 0   XYZ 
    dof ry rz
    limits (-10.0 20.0)
           (-20.0 0.0)
  end
  begin
     id 25 
     name rhumerus
     direction -1 -4.48956e-011 -4.97258e-028  
     length 5.2398   
     axis 180 30 90   XYZ
    dof rx ry rz
    limits (-90.0 60.0)
           (-90.0 90.0)
           (-90.0 90.0)
  end
  begin
     id 26 
     name rradius
     direction -1 -4.4897e-011 -1.72611e-027   
     length 3.48042   
     axis 180 30 90   XYZ
    dof rx
    limits (-10.0 170.0)
  end
  begin
     id 27 
     name rwrist
     direction -1 -4.48976e-011 1.15382e-027   
     length 1.74021   
     axis -5.52449e-016 -90 -90   XYZ
    dof ry
    limits (-180.0 0.0)
  end
  begin
     id 28
     name rhand
     direction -1 -4.48963e-011 2.30765e-027   
     length 0.618713   
     axis -1.47248e-015 -90 -90   XYZ
    dof rx rz
    limits (-90.0 90.0)
           (-45.0 45.0)
  end
  begin
     id 29
     name rfingers
     direction -1 -4.4888e-011 4.61529e-027   
     length 0.498823   
     axis -2.94495e-015 -90 -90   XYZ
    dof rx
    limits (0.0 90.0)
  end
  begin
     id 30
     name rthumb
     direction -0.707107 -6.34968e-011 0.707107   
     length 0.716213   
     axis -90 -45 -2.85299e-015   XYZ
    dof rx rz
    limits (-45.0 45.0)
           (-45.0 45.0)
  end
:hierarchy
  begin
    root lhipjoint rhipjoint lowerback
    lhipjoint lfemur
    lfemur ltibia
    ltibia lfoot
    lfoot ltoes
    rhipjoint rfemur
    rfemur rtibia
    rtibia rfoot
    rfoot rtoes
    lowerback upperback
    upperback thorax
    thorax lowerneck lclavicle rclavicle
    lowerneck upperneck
    upperneck head
    lclavicle lhumerus
    lhumerus lradius
    lradius lwrist
    lwrist lhand lthumb
    lhand lfingers
    rclavicle rhumerus
    rhumerus rradius
    rradius rwrist
    rwrist rhand rthumb
    rhand rfingers
  end

#!OML:ASF G:\JayActor3\Patient Classification 1\Patient 1\Session 5\male.ASF
:FULLY-SPECIFIED
:DEGREES
205
root -33.2923 14.2248 -6.85818 11.1503 -87.0073 3.33735
lowerback 30.7712 -0.709791 1.14277
upperback 7.32823 -1.22415 -0.0946025
thorax -8.62043 -0.862931 -0.276118
lowerneck -2.95397 0.553267 2.05427
upperneck -20.7363 0.177111 0.409644
head -5.7789 -0.426764 -0.190121
rclavicle 3.57812e-015 1.63997e-014
rhumerus -16.7462 7.84291 -84.7288
rradius 47.649
rwrist -7.67352
rhand -20.2089 -9.17956
rfingers 7.12502
rthumb 6.13813 -39.0706
lclavicle 3.57812e-015 1.63997e-014
lhumerus -17.4909 -9.20827 83.4218
lradius 46.3146
lwrist 25.4247
lhand -18.1677 13.7891
lfingers 7.12502
lthumb 8.10849 43.6135
rfemur -64.8956 -7.05002 25.3763
rtibia 85.0017
rfoot -34.6749 -9.31358
rtoes 5.79383
lfemur -64.7239 8.19283 -22.1094
ltibia 79.1755
lfoot -27.4384 7.08716
ltoes -6.39636
206
root -33.2914 14.2211 -6.85653 11.2197 -87.0168 3.23452
lowerback 30.8001 -0.705627 1.13911
upperback 7.32366 -1.22026 -0.0979338
thorax -8.63942 -0.861221 -0.278618
lowerneck -2.939 0.554199 2.0607
upperneck -20.7442 0.177593 0.400452
head -5.78389 -0.426417 -0.194126
rclavicle 8.24956e-015 7.35503e-015
rhumerus -16.769 7.85487 -84.7334
rradius 47.7254
rwrist -7.68833
rhand -20.218 -9.15609
rfingers 7.12502
rthumb 6.1294 -39.0474
lclavicle 8.24956e-015 7.35503e-015
lhumerus -17.5153 -9.22134 83.4129
lradius 46.3565
lwrist 25.4274
lhand -18.1581 13.8117
lfingers 7.12502
lthumb 8.11779 43.6358
rfemur -64.8891 -7.05312 25.3736
rtibia 85.0411
rfoot -34.6766 -9.29726
rtoes 5.81568
lfemur -64.7182 8.18491 -22.1003
ltibia 79.2234
lfoot -27.4518 7.10419
ltoes -6.40752
207
root -33.2902 14.2176 -6.85478 11.2571 -87.0276 3.16506
lowerback 30.8223 -0.70027 1.13178
upperback 7.32653 -1.21664 -0.100763
thorax -8.6466 -0.859768 -0.278535
lowerneck -2.92569 0.555823 2.06451
upperneck -20.7674 0.178745 0.395276
head -5.79344 -0.426454 -0.196378
rclavicle 4.17448e-015 -9.93923e-016
rhumerus -16.7824 7.86425 -84.7361
rradius 47.8067
rwrist -7.70446
rhand -20.2171 -9.16063
rfingers 7.12502
rthumb 6.13026 -39.0519
lclavicle 4.17448e-015 -9.93923e-016
lhumerus -17.5282 -9.22882 83.4026
lradius 46.3961
lwrist 25.4326
lhand -18.1475 13.8329
lfingers 7.12502
lthumb 8.12795 43.6566
rfemur -64.882 -7.04754 25.3655
rtibia 85.0799
rfoot -34.6772 -9.28522
rtoes 5.83789
lfemur -64.7128 8.17237 -22.0924
ltibia 79.2694
lfoot -27.4642 7.12334
ltoes -6.40369
208
root -33.2888 14.2139 -6.8531 11.3042 -87.0427 3.09128
lowerback 30.8456 -0.69263 1.12198
upperback 7.32801 -1.21082 -0.103862
thorax -8.65583 -0.857221 -0.278109
lowerneck -2.91623 0.556982 2.06543
upperneck -20.7933 0.179634 0.395206
head -5.80323 -0.426928 -0.1965
rclavicle -1.2921e-014 -2.3556e-014
rhumerus -16.7984 7.86985 -84.7399
rradius 47.891
rwrist -7.72313
rhand -20.224 -9.178
rfingers 7.12502
rthumb 6.12354 -39.0695
lclavicle -1.2921e-014 -2.3556e-014
lhumerus -17.5392 -9.23728 83.3916
lradius 46.4305
lwrist 25.4423
lhand -18.1353 13.857
lfingers 7.12502
lthumb 8.13974 43.6802
rfemur -64.8833 -7.02817 25.3551
rtibia 85.1215
rfoot -34.6758 -9.2745
rtoes 5.87316
lfemur -64.717 8.16173 -22.0846
ltibia 79.3185
lfoot -27.4754 7.14071
ltoes -6.39084
209
root -33.2872 14.2099 -6.85144 11.3944 -87.0584 2.97834
lowerback 30.8675 -0.685314 1.11172
upperback 7.33009 -1.20556 -0.106545
thorax -8.66374 -0.854941 -0.276769
lowerneck -2.91092 0.558296 2.06533
upperneck -20.819 0.180844 0.397676
head -5.81228 -0.427419 -0.195649
rclavicle -5.76476e-015 4.57205e-015
rhumerus -16.8135 7.87535 -84.7458
rradius 47.976
rwrist -7.74324
rhand -20.2282 -9.2028
rfingers 7.12502
rthumb 6.11951 -39.0944
lclavicle -5.76476e-015 4.57205e-015
lhumerus -17.5459 -9.24546 83.3776
lradius 46.4585
lwrist 25.4582
lhand -18.1156 13.8833
lfingers 7.12502
lthumb 8.15872 43.7058
rfemur -64.8911 -6.99923 25.3444
rtibia 85.1661
rfoot -34.675 -9.26399
rtoes 5.92837
lfemur -64.7309 8.15456 -22.0767
ltibia 79.3726
lfoot -27.4856 7.15629
ltoes -6.37768
210
root -33.2856 14.2057 -6.84964 11.5413 -87.0719 2.81247
lowerback 30.8909 -0.679854 1.10664
upperback 7.33051 -1.20082 -0.10852
thorax -8.67427 -0.852929 -0.277399
lowerneck -2.90854 0.558552 2.06503
upperneck -20.8419 0.18035 0.399195
head -5.81995 -0.42861 -0.195002
rclavicle -9.93923e-017 3.97569e-015
rhumerus -16.8308 7.87996 -84.7517
rradius 48.0583
rwrist -7.76353
rhand -20.2251 -9.22508
rfingers 7.12502
rthumb 6.12249 -39.1166
lclavicle -9.93923e-017 3.97569e-015
lhumerus -17.5509 -9.25576 83.3642
lradius 46.4798
lwrist 25.4752
lhand -18.1049 13.9035
lfingers 7.12502
lthumb 8.16908 43.7256
rfemur -64.9049 -6.96921 25.3354
rtibia 85.2143
rfoot -34.6751 -9.24869
rtoes 5.99577
lfemur -64.7532 8.14907 -22.0688
ltibia 79.4316
lfoot -27.4969 7.17022
ltoes -6.36381
211
root -33.2839 14.2013 -6.84765 11.7499 -87.0831 2.58725
lowerback 30.9167 -0.676296 1.10837
upperback 7.32933 -1.19624 -0.110392
thorax -8.68789 -0.85106 -0.281748
lowerneck -2.91392 0.557714 2.06086
upperneck -20.8547 0.178768 0.403836
head -5.82315 -0.429986 -0.192701
rclavicle 1.00386e-014 8.24956e-015
rhumerus -16.8505 7.88228 -84.7574
rradius 48.1355
rwrist -7.78282
rhand -20.2134 -9.24268
rfingers 7.12502
rthumb 6.13378 -39.1339
lclavicle 1.00386e-014 8.24956e-015
lhumerus -17.5553 -9.27106 83.3511
lradius 46.4957
lwrist 25.4929
lhand -18.0924 13.9282
lfingers 7.12502
lthumb 8.18116 43.7498
rfemur -64.9231 -6.94065 25.329
rtibia 85.2645
rfoot -34.6751 -9.22522
rtoes 6.08644
lfemur -64.7812 8.14469 -22.0601
ltibia 79.4933
lfoot -27.507 7.18779
ltoes -6.37029
212
root -33.2821 14.1968 -6.84547 12.0331 -87.089 2.28975
lowerback 30.9435 -0.675754 1.11838
upperback 7.32769 -1.19268 -0.110678
thorax -8.70262 -0.849778 -0.288699
lowerneck -2.92992 0.555565 2.05215
upperneck -20.8561 0.175632 0.411464
head -5.82096 -0.431714 -0.188657
rclavicle 1.48095e-014 1.93815e-014
rhumerus -16.869 7.88555 -84.7609
rradius 48.2053
rwrist -7.80088
rhand -20.2004 -9.24374
rfingers 7.12502
rthumb 6.14634 -39.1346
lclavicle 1.48095e-014 1.93815e-014
lhumerus -17.5581 -9.286 83.3406
lradius 46.5086
lwrist 25.5033
lhand -18.087 13.9408
lfingers 7.12502
lthumb 8.18641 43.7622
rfemur -64.9453 -6.92272 25.3286
rtibia 85.3172
rfoot -34.6728 -9.18998
rtoes 6.19087
lfemur -64.8144 8.13922 -22.0494
ltibia 79.5561
lfoot -27.5162 7.20217
ltoes -6.3823
213
root -33.2801 14.1928 -6.8431 12.359 -87.0876 1.95139
lowerback 30.9661 -0.678419 1.13512
upperback 7.32868 -1.19109 -0.109192
thorax -8.71237 -0.849547 -0.29693
lowerneck -2.95082 0.554187 2.03852
upperneck -20.8528 0.173969 0.422433
head -5.81643 -0.432456 -0.1828
rclavicle -6.85807e-015 2.68359e-015
rhumerus -16.8822 7.8881 -84.7611
rradius 48.2679
rwrist -7.81752
rhand -20.1928 -9.23542
rfingers 7.12502
rthumb 6.15368 -39.126
lclavicle -6.85807e-015 2.68359e-015
lhumerus -17.5558 -9.30189 83.3325
lradius 46.5179
lwrist 25.5089
lhand -18.0868 13.9451
lfingers 7.12502
lthumb 8.18654 43.7665
rfemur -64.9683 -6.91909 25.3324
rtibia 85.3698
rfoot -34.6661 -9.1378
rtoes 6.30391
lfemur -64.8477 8.12425 -22.0356
ltibia 79.6156
lfoot -27.521 7.22525
ltoes -6.41757
214
root -33.2778 14.1889 -6.84056 12.6816 -87.0793 1.61792
lowerback 30.9877 -0.68416 1.15558
upperback 7.32985 -1.19205 -0.106496
thorax -8.72154 -0.850538 -0.305015
lowerneck -2.96508 0.553186 2.028
upperneck -20.8526 0.172746 0.430683
head -5.81402 -0.433048 -0.178345
rclavicle -8.94531e-015 -6.85807e-015
rhumerus -16.8936 7.89224 -84.7596
rradius 48.3241
rwrist -7.83271
rhand -20.1915 -9.22585
rfingers 7.12502
rthumb 6.15491 -39.1164
lclavicle -8.94531e-015 -6.85807e-015
lhumerus -17.5533 -9.31744 83.3265
lradius 46.5249
lwrist 25.5103
lhand -18.0834 13.9437
lfingers 7.12502
lthumb 8.18989 43.765
rfemur -64.9945 -6.93124 25.3384
rtibia 85.4249
rfoot -34.655 -9.06627
rtoes 6.41981
lfemur -64.8827 8.10087 -22.0215
ltibia 79.6727
lfoot -27.5242 7.24894
ltoes -6.44761
